<?xml version="1.0" encoding="UTF-8" standalone="no"?> <svg xmlns="http://www.w3.org/2000/svg" viewBox="0 0 32 32"><defs><style>.cls-1{fill:#1a1a1a;}</style></defs><title>Analytics, chart, graph</title><g id="_07" data-name="07"><path class="cls-1" d="M10,28H4a1,1,0,0,1-1-1V16.524a1,1,0,0,1,1-1h6a1,1,0,0,1,1,1V27A1,1,0,0,1,10,28ZM5,26H9V17.524H5Z"/><path class="cls-1" d="M19,28H13a1,1,0,0,1-1-1V10.238a1,1,0,0,1,1-1h6a1,1,0,0,1,1,1V27A1,1,0,0,1,19,28Zm-5-2h4V11.238H14Z"/><path class="cls-1" d="M28,28H22a1,1,0,0,1-1-1V5a1,1,0,0,1,1-1h6a1,1,0,0,1,1,1V27A1,1,0,0,1,28,28Zm-5-2h4V6H23Z"/></g></svg>