<?xml version="1.0" encoding="iso-8859-1"?>
<!-- Generator: Adobe Illustrator 16.0.0, SVG Export Plug-In . SVG Version: 6.00 Build 0)  -->
<!DOCTYPE svg PUBLIC "-//W3C//DTD SVG 1.1//EN" "http://www.w3.org/Graphics/SVG/1.1/DTD/svg11.dtd">
<svg version="1.1" id="Capa_1" xmlns="http://www.w3.org/2000/svg" xmlns:xlink="http://www.w3.org/1999/xlink" x="0px" y="0px"
	 width="593.52px" height="593.52px" viewBox="0 0 593.52 593.52" style="enable-background:new 0 0 593.52 593.52;"
	 xml:space="preserve">
<g>
	<g>
		<path d="M500.45,15.736C490.624,5.911,477.562,0.5,463.667,0.5s-26.959,5.411-36.783,15.236L270.42,172.2
			c-9.826,9.825-15.236,22.888-15.236,36.784c0,13.895,5.411,26.958,15.236,36.784l23.52,23.52l-24.651,24.651l-23.52-23.52
			c-9.825-9.826-22.888-15.236-36.784-15.236c-0.001,0,0,0,0,0c-13.895,0-26.959,5.412-36.784,15.236L15.737,426.883
			c-9.826,9.824-15.236,22.887-15.236,36.783c0,13.895,5.411,26.959,15.236,36.783l77.333,77.334
			c9.826,9.824,22.889,15.236,36.784,15.236c13.895,0,26.958-5.412,36.783-15.236l156.463-156.465
			c9.826-9.824,15.236-22.889,15.236-36.783c0-13.896-5.41-26.959-15.236-36.783l-23.52-23.521l24.65-24.65l23.52,23.52
			c9.826,9.826,22.889,15.236,36.785,15.236c13.895,0,26.957-5.412,36.783-15.236l156.463-156.464
			c9.826-9.825,15.236-22.888,15.236-36.784s-5.41-26.958-15.236-36.784L500.45,15.736z M292.809,378.043
			c2.339,2.34,2.688,5.072,2.688,6.492s-0.349,4.15-2.689,6.49L136.345,547.49c-2.339,2.338-5.07,2.688-6.49,2.688
			s-4.152-0.348-6.491-2.689L46.03,470.156c-2.339-2.338-2.689-5.07-2.689-6.49s0.349-4.152,2.689-6.49l156.464-156.465
			c2.339-2.34,5.071-2.689,6.491-2.689c1.42,0,4.151,0.35,6.49,2.689l23.521,23.521l-42.249,42.248
			c-8.365,8.365-8.365,21.928,0,30.293c4.183,4.182,9.665,6.273,15.146,6.273c5.482,0,10.964-2.092,15.146-6.273l42.249-42.25
			L292.809,378.043z M547.491,136.344L391.026,292.808c-2.338,2.339-5.07,2.688-6.49,2.688s-4.152-0.349-6.49-2.689l-23.521-23.521
			l44.473-44.472c8.365-8.365,8.365-21.927,0-30.292c-8.365-8.365-21.928-8.365-30.293,0l-44.473,44.472l-23.52-23.521
			c-2.34-2.339-2.689-5.07-2.689-6.49c0-1.42,0.35-4.152,2.689-6.491L457.177,46.029c2.338-2.339,5.07-2.688,6.49-2.688
			s4.15,0.349,6.49,2.689l77.334,77.332c2.34,2.339,2.688,5.071,2.688,6.491C550.179,131.272,549.831,134.004,547.491,136.344z"/>
		<path d="M129.854,593.52c-14.027,0-27.216-5.463-37.137-15.383l-77.333-77.334c-9.92-9.918-15.383-23.107-15.383-37.137
			c0-14.03,5.463-27.219,15.383-37.137l156.463-156.464c9.919-9.92,23.108-15.383,37.137-15.383s27.219,5.463,37.138,15.383
			l23.167,23.167l23.944-23.944l-23.167-23.167c-9.92-9.919-15.383-23.108-15.383-37.137c0-14.029,5.463-27.218,15.383-37.137
			L426.53,15.383C436.449,5.463,449.638,0,463.667,0c14.027,0,27.217,5.463,37.137,15.383l77.332,77.332
			c9.92,9.919,15.383,23.107,15.383,37.137s-5.463,27.219-15.383,37.137L421.673,323.453c-9.922,9.92-23.11,15.383-37.137,15.383
			c-14.029,0-27.219-5.463-37.139-15.383l-23.166-23.166l-23.943,23.943l23.166,23.168c9.92,9.918,15.383,23.106,15.383,37.137
			s-5.463,27.219-15.383,37.137L166.991,578.137C157.071,588.057,143.882,593.52,129.854,593.52z M208.985,255.683
			c-13.762,0-26.7,5.359-36.431,15.09L16.091,427.236c-9.731,9.729-15.09,22.667-15.09,36.43s5.359,26.7,15.09,36.43l77.333,77.334
			c9.732,9.73,22.67,15.09,36.43,15.09c13.761,0,26.698-5.359,36.43-15.09l156.463-156.465c9.73-9.729,15.09-22.667,15.09-36.43
			s-5.359-26.701-15.09-36.43l-23.873-23.875l25.357-25.357l23.873,23.873c9.73,9.73,22.669,15.09,36.432,15.09
			c13.759,0,26.697-5.359,36.43-15.09l156.463-156.464c9.73-9.73,15.09-22.668,15.09-36.43s-5.359-26.7-15.09-36.43L500.097,16.09
			C490.365,6.359,477.428,1,463.667,1c-13.762,0-26.7,5.359-36.43,15.09L270.773,172.554c-9.731,9.73-15.09,22.668-15.09,36.43
			c0,13.762,5.359,26.699,15.09,36.43l23.874,23.874l-25.358,25.358l-23.874-23.874
			C235.685,261.042,222.747,255.683,208.985,255.683z M129.854,550.678c-1.499,0-4.38-0.368-6.845-2.836L45.676,470.51
			c-2.467-2.466-2.835-5.346-2.835-6.844s0.368-4.379,2.835-6.844L202.14,300.357c2.467-2.468,5.347-2.836,6.845-2.836
			c1.497,0,4.377,0.368,6.844,2.836l23.874,23.875l-42.602,42.602c-8.156,8.157-8.156,21.429,0,29.586
			c3.952,3.951,9.206,6.127,14.793,6.127s10.841-2.176,14.793-6.127l42.602-42.604l23.874,23.873
			c2.467,2.467,2.835,5.348,2.835,6.846c0,1.497-0.369,4.377-2.835,6.844L136.698,547.844
			C134.231,550.31,131.352,550.678,129.854,550.678z M208.985,298.521c-1.343,0-3.925,0.33-6.138,2.543L46.383,457.529
			c-2.212,2.21-2.542,4.793-2.542,6.137c0,1.343,0.331,3.926,2.542,6.137l77.333,77.332c2.21,2.213,4.794,2.543,6.138,2.543
			c1.342,0,3.924-0.33,6.137-2.541l156.464-156.465c2.212-2.212,2.542-4.794,2.542-6.137s-0.33-3.927-2.542-6.139l-23.167-23.166
			l-41.895,41.896c-4.141,4.14-9.646,6.42-15.5,6.42s-11.359-2.28-15.5-6.42c-8.546-8.547-8.546-22.453,0-31l41.895-41.895
			l-23.167-23.168C212.909,298.852,210.327,298.521,208.985,298.521z M384.536,295.997c-1.498,0-4.379-0.368-6.844-2.835
			l-23.875-23.874l44.826-44.825c3.951-3.951,6.128-9.205,6.128-14.792c0-5.588-2.177-10.842-6.128-14.793
			s-9.205-6.127-14.793-6.127s-10.842,2.176-14.793,6.127l-44.826,44.826l-23.873-23.874c-2.468-2.466-2.836-5.347-2.836-6.844
			c0-1.498,0.368-4.378,2.836-6.844L456.823,45.675c2.466-2.467,5.346-2.835,6.844-2.835c1.497,0,4.377,0.369,6.844,2.836
			l77.334,77.332c2.466,2.465,2.834,5.347,2.834,6.845s-0.368,4.379-2.834,6.844L391.38,293.162
			C388.915,295.628,386.034,295.997,384.536,295.997z M355.231,269.287l23.168,23.167c2.21,2.212,4.793,2.542,6.137,2.542
			c1.343,0,3.926-0.33,6.137-2.542L547.138,135.99c2.211-2.21,2.541-4.794,2.541-6.137s-0.33-3.927-2.541-6.138l-77.334-77.332
			c-2.212-2.212-4.794-2.543-6.137-2.543s-3.926,0.33-6.137,2.542L301.065,202.847c-2.213,2.212-2.543,4.794-2.543,6.137
			s0.33,3.925,2.543,6.137l23.166,23.167l44.119-44.119c4.141-4.14,9.645-6.42,15.5-6.42s11.359,2.28,15.5,6.42
			c8.547,8.546,8.547,22.453,0,31L355.231,269.287z"/>
	</g>
</g>
<g>
</g>
<g>
</g>
<g>
</g>
<g>
</g>
<g>
</g>
<g>
</g>
<g>
</g>
<g>
</g>
<g>
</g>
<g>
</g>
<g>
</g>
<g>
</g>
<g>
</g>
<g>
</g>
<g>
</g>
</svg>
