<?xml version="1.0" encoding="iso-8859-1"?>
<!-- Generator: Adobe Illustrator 19.0.0, SVG Export Plug-In . SVG Version: 6.00 Build 0)  -->
<svg version="1.1" id="Capa_1" xmlns="http://www.w3.org/2000/svg" xmlns:xlink="http://www.w3.org/1999/xlink" x="0px" y="0px"
	 viewBox="0 0 470.005 470.005" style="enable-background:new 0 0 470.005 470.005;" xml:space="preserve">
<g>
	<path d="M305.002,92.5h-3.267l-7.127-65.922C293.025,11.923,279.744,0,265.002,0h-60c-14.741,0-28.022,11.923-29.606,26.578
		L168.269,92.5h-3.267c-26.191,0-47.5,21.309-47.5,47.5v190c0,26.191,21.309,47.5,47.5,47.5h3.267l7.127,65.927
		c1.584,14.655,14.865,26.578,29.606,26.578h60c14.741,0,28.022-11.923,29.606-26.578l7.127-65.927h3.267
		c26.191,0,47.5-21.309,47.5-47.5V140C352.502,113.809,331.194,92.5,305.002,92.5z M190.31,28.189
		C191.083,21.04,197.811,15,205.002,15h60c7.191,0,13.92,6.04,14.692,13.189l6.953,64.311h-103.29L190.31,28.189z M279.695,441.815
		c-0.772,7.149-7.501,13.189-14.692,13.189h-60c-7.191,0-13.92-6.04-14.692-13.189l-6.953-64.315h103.29L279.695,441.815z
		 M337.502,330c0,17.921-14.579,32.5-32.5,32.5h-140c-17.921,0-32.5-14.579-32.5-32.5V140c0-17.921,14.579-32.5,32.5-32.5h9.953
		c0.02,0,119.997,0,119.997,0c0.078,0,10.05,0,10.05,0c17.921,0,32.5,14.579,32.5,32.5V330z"/>
	<path d="M315.002,142.5h-160c-4.143,0-7.5,3.357-7.5,7.5v170c0,4.143,3.357,7.5,7.5,7.5h30c4.143,0,7.5-3.357,7.5-7.5
		s-3.357-7.5-7.5-7.5h-22.5v-155h145v155h-92.5c-4.143,0-7.5,3.357-7.5,7.5s3.357,7.5,7.5,7.5h100c4.143,0,7.5-3.357,7.5-7.5V150
		C322.502,145.857,319.145,142.5,315.002,142.5z"/>
	<path d="M235.002,172.5c-4.143,0-7.5,3.357-7.5,7.5v47.5h-42.5c-4.143,0-7.5,3.357-7.5,7.5s3.357,7.5,7.5,7.5h42.5V290
		c0,4.143,3.357,7.5,7.5,7.5s7.5-3.357,7.5-7.5v-47.5h42.5c4.143,0,7.5-3.357,7.5-7.5s-3.357-7.5-7.5-7.5h-42.5V180
		C242.502,175.857,239.145,172.5,235.002,172.5z"/>
</g>
<g>
</g>
<g>
</g>
<g>
</g>
<g>
</g>
<g>
</g>
<g>
</g>
<g>
</g>
<g>
</g>
<g>
</g>
<g>
</g>
<g>
</g>
<g>
</g>
<g>
</g>
<g>
</g>
<g>
</g>
</svg>
